<svg width="114" height="143" viewBox="0 0 114 143" fill="none" xmlns="http://www.w3.org/2000/svg">
<path d="M62.099 143C87.9619 143 108.928 118.468 108.928 88.2059C108.928 57.9439 87.9619 33.4117 62.099 33.4117C36.2362 33.4117 15.2703 57.9439 15.2703 88.2059C15.2703 118.468 36.2362 143 62.099 143Z" fill="#A0616A"/>
<path d="M63.9666 19.2291L50.3542 11.0883L53.0767 16.5155L42.1867 13.8019L44.9092 16.5155L31.2968 13.8019L36.7418 19.2291C36.7418 19.2291 14.9619 19.2291 12.2395 40.9381L5.75319 46.603L4.07207 51.7926V59.9335L9.51695 65.3607V73.5016L16.2883 101.397L19.3423 65.3607C19.3423 65.3607 44.9093 73.5017 55.7992 51.7927C55.7992 51.7927 58.5217 59.9336 72.1341 57.22L100.784 63.853L106.892 101.397C106.892 101.397 113.012 91.3443 108.928 77.0441C118.457 74.6106 110.249 51.7927 110.249 51.7927C110.249 51.7927 102.081 43.6518 102.081 38.2246C102.081 32.7973 93.914 27.3701 88.469 27.3701C83.0241 27.3701 69.4116 16.5156 69.4116 16.5156L63.9666 19.2291Z" fill="#2F2E41"/>
<path d="M42.0237 107.877L41.6989 108.234C40.3278 109.742 40.8658 112.151 42.7475 112.929C43.3503 113.178 44.0191 113.22 44.6487 113.048L53.2137 110.706C55.6046 110.053 58.1141 109.963 60.5444 110.444L77.5787 113.814C78.3583 113.968 79.1655 113.747 79.7582 113.217C81.1087 112.009 80.79 109.817 79.1518 109.046L75.8189 107.478C75.2862 107.228 74.713 107.074 74.1261 107.024L58.1411 105.662C57.1448 105.577 56.1426 105.585 55.1477 105.687L44.1199 106.818C43.3148 106.901 42.5683 107.278 42.0237 107.877Z" fill="#2F2E41"/>
<path d="M7.82347 66.1076L3.20574 60.5843C1.13468 58.1072 0 54.981 0 51.7521V50.8252C0 49.3698 0.194639 47.921 0.578743 46.5172L2.19951 40.5937C4.75616 31.2498 9.82776 22.7866 16.8619 16.1259C23.1693 10.1534 30.8494 5.82478 39.225 3.52179L41.9078 2.78411C51.1061 0.254904 60.8345 0.397196 69.9549 3.19434C78.1546 5.70912 85.5738 10.2815 91.5059 16.4758L99.666 24.9966C102.436 27.8894 104.834 31.1176 106.802 34.6059C110.865 41.8053 113 49.9319 113 58.1987V63.4919C113 68.6784 106.834 71.39 103.012 67.8847L100.003 65.1256C92.2796 58.0433 81.4009 55.5445 71.3612 58.5466L70.4315 58.8246C68.2814 59.4675 66.0492 59.7941 63.805 59.7941C61.3265 59.7941 58.8641 60.1925 56.512 60.9739L52.9411 62.1604C49.5562 63.285 46.0529 64.0155 42.5007 64.3374L15.1242 66.818C14.548 66.8702 13.9865 67.0295 13.4687 67.2876C11.5407 68.2484 9.20518 67.7603 7.82347 66.1076Z" fill="#111111"/>
<mask id="mask0" mask-type="alpha" maskUnits="userSpaceOnUse" x="1" y="51" width="107" height="26">
<path d="M17.2191 60.2263L1.01802 71.9706L34.6126 76.0294L107.91 70.9559L98.8004 63.5785C94.0951 59.7679 88.4818 57.2431 82.5088 56.2508L55.1725 51.7096C51.0019 51.0168 46.7403 51.0853 42.5942 51.9118L30.9186 54.2393C25.9742 55.225 21.3011 57.2672 17.2191 60.2263Z" fill="#232323"/>
</mask>
<g mask="url(#mask0)">
<path d="M7.85573 66.1462L3.20574 60.5843C1.13468 58.1072 0 54.981 0 51.7521V50.8252C0 49.3698 0.194639 47.921 0.578743 46.5172L2.19951 40.5937C4.75616 31.2498 9.82776 22.7866 16.8619 16.1259C23.1693 10.1534 30.8494 5.82478 39.225 3.52179L41.9078 2.78411C51.1061 0.254904 60.8345 0.397196 69.9549 3.19434C78.1546 5.70912 85.5738 10.2815 91.5059 16.4758L99.666 24.9966C102.436 27.8894 104.834 31.1176 106.802 34.6059C110.865 41.8053 113 49.9319 113 58.1987V63.4919C113 68.6784 106.834 71.39 103.012 67.8847L99.9551 65.0818C92.2614 58.0267 81.4244 55.5374 71.4232 58.528L69.7119 59.0397C68.0393 59.5399 66.4501 60.2852 64.9961 61.2514C62.4307 62.9561 59.4642 63.9604 56.3908 64.1646L45.8108 64.8676L15.1762 66.8376C14.5664 66.8768 13.9705 67.0374 13.4236 67.31C11.522 68.2577 9.21853 67.7762 7.85573 66.1462Z" fill="#232323"/>
</g>
<path d="M78.3874 118.647L73.5481 117.632C64.0225 115.633 54.1537 115.981 44.7928 118.647C53.8894 123.181 64.4524 123.764 73.9932 120.261L78.3874 118.647Z" fill="white"/>
</svg>
